#!OML:ASF Y:\EmotionMaleHayes\Project 1\Capture day 1\Session 1\Male1.ASF
:FULLY-SPECIFIED
:DEGREES
458
root 49.4267 16.865 -0.644336 697.663 93.3991 701.472
lowerback 9.21384 2.7262 -3.06098
upperback 4.84917 3.55447 -0.765253
thorax -0.257548 1.81458 0.593298
lowerneck -21.845 -1.31403 2.24663
upperneck 22.8605 -2.6933 0.835806
head 10.9971 -0.847733 -0.47769
rclavicle 3.78188e-014 7.95139e-016
rhumerus -43.2481 20.0461 -91.7873
rradius 65.4348
rwrist -14.1049
rhand -20.4374 -18.9474
rfingers 7.12502
rthumb 5.91756 -48.8448
lclavicle 3.78188e-014 7.95139e-016
lhumerus -48.2559 -25.772 94.5651
lradius 62.1902
lwrist 22.96
lhand -28.2068 -34.0718
lfingers 7.12502
lthumb -1.58563 -4.09796
rfemur -2.53762 -4.60663 17.0644
rtibia 18.4227
rfoot -13.7662 -3.72299
rtoes 6.69749
lfemur -4.55221 -0.627764 -17.9895
ltibia 23.9387
lfoot -13.3902 10.4665
ltoes -18.4851
459
root 49.4241 16.867 -0.634445 696.998 93.3907 700.786
lowerback 9.43136 2.7723 -3.2034
upperback 4.80586 3.59381 -0.750357
thorax -0.431514 1.83408 0.671012
lowerneck -21.7419 -1.29522 2.18409
upperneck 22.6289 -2.6681 0.935854
head 10.8946 -0.83567 -0.425284
rclavicle 2.43014e-014 3.97569e-016
rhumerus -43.1916 19.8279 -91.7635
rradius 65.4523
rwrist -14.3727
rhand -20.3679 -19.0001
rfingers 7.12502
rthumb 5.98461 -48.8956
lclavicle 2.43014e-014 3.97569e-016
lhumerus -48.2963 -25.8586 94.7425
lradius 62.0061
lwrist 22.8224
lhand -28.2533 -34.1064
lfingers 7.12502
lthumb -1.63055 -4.1329
rfemur -2.71876 -4.13698 17.1725
rtibia 18.6345
rfoot -14.051 -4.16122
rtoes 6.83497
lfemur -4.6671 -0.522062 -17.8954
ltibia 24.2091
lfoot -13.6126 10.3278
ltoes -18.0891
460
root 49.4403 16.866 -0.630413 694.378 93.5586 698.192
lowerback 9.44307 2.80746 -3.37371
upperback 4.81219 3.6274 -0.837402
thorax -0.436241 1.8501 0.672278
lowerneck -21.739 -1.37878 2.07427
upperneck 22.6355 -2.78193 1.06572
head 10.8998 -0.879632 -0.377636
rclavicle 3.56322e-014 -1.59028e-014
rhumerus -43.1992 19.5844 -91.8204
rradius 65.4604
rwrist -14.6673
rhand -20.6409 -18.901
rfingers 7.12502
rthumb 5.72102 -48.8037
lclavicle 3.56322e-014 -1.59028e-014
lhumerus -48.3669 -26.0138 94.8746
lradius 61.8432
lwrist 22.6387
lhand -28.2441 -34.1315
lfingers 7.12502
lthumb -1.6217 -4.15796
rfemur -2.63573 -4.08595 16.925
rtibia 18.6959
rfoot -14.2849 -4.24742
rtoes 6.85189
lfemur -4.56294 -0.511656 -18.1287
ltibia 24.2373
lfoot -13.7171 10.2167
ltoes -17.8239
461
root 49.4506 16.8657 -0.636147 697.497 93.552 701.318
lowerback 9.50395 2.78275 -3.05219
upperback 4.7591 3.61447 -0.820096
thorax -0.507534 1.84852 0.507709
lowerneck -21.6486 -1.41494 1.93187
upperneck 22.6599 -2.8258 1.24068
head 10.8971 -0.888282 -0.296661
rclavicle 2.87741e-014 -1.66979e-014
rhumerus -43.3209 19.4282 -91.8778
rradius 65.5051
rwrist -14.831
rhand -20.8649 -18.6321
rfingers 7.12502
rthumb 5.50474 -48.5406
lclavicle 2.87741e-014 -1.66979e-014
lhumerus -48.5234 -26.0169 95.0016
lradius 61.7819
lwrist 22.5798
lhand -28.2364 -34.2105
lfingers 7.12502
lthumb -1.61421 -4.23685
rfemur -2.52898 -4.21679 17.0953
rtibia 18.6401
rfoot -14.3085 -4.04491
rtoes 7.66157
lfemur -4.49156 -0.551227 -17.9592
ltibia 24.1917
lfoot -13.7717 10.166
ltoes -17.7258
462
root 49.4616 16.8693 -0.635565 693.529 93.5992 697.294
lowerback 9.42223 2.81389 -3.35091
upperback 4.75669 3.63417 -0.85679
thorax -0.48031 1.85387 0.638224
lowerneck -21.5802 -1.38694 1.92269
upperneck 22.6183 -2.77497 1.22079
head 10.8687 -0.870006 -0.293773
rclavicle -2.36057e-014 2.5842e-015
rhumerus -43.3341 19.3384 -91.8387
rradius 65.5308
rwrist -14.7178
rhand -20.7845 -18.4838
rfingers 7.12502
rthumb 5.5824 -48.3903
lclavicle -2.36057e-014 2.5842e-015
lhumerus -48.5955 -26.0086 95.147
lradius 61.6917
lwrist 22.7144
lhand -28.2435 -34.2913
lfingers 7.12502
lthumb -1.62108 -4.31768
rfemur -2.46165 -4.06017 16.812
rtibia 18.3971
rfoot -13.9541 -4.02563
rtoes 7.35132
lfemur -4.4828 -0.523247 -18.2343
ltibia 24.1695
lfoot -13.8594 10.1437
ltoes -17.6558
463
root 49.4723 16.8726 -0.632628 692.348 93.5986 696.028
lowerback 9.29031 2.82384 -3.5153
upperback 4.7801 3.64086 -0.844321
thorax -0.394093 1.85315 0.749531
lowerneck -21.6538 -1.34053 2.0605
upperneck 22.6138 -2.71873 1.06359
head 10.8762 -0.8531 -0.365491
rclavicle -1.76421e-014 -3.18055e-015
rhumerus -43.2216 19.3214 -91.8093
rradius 65.5337
rwrist -14.5723
rhand -20.708 -18.6145
rfingers 7.12502
rthumb 5.65632 -48.519
lclavicle -1.76421e-014 -3.18055e-015
lhumerus -48.587 -26.0234 95.2776
lradius 61.5276
lwrist 22.9158
lhand -28.2451 -34.4055
lfingers 7.12502
lthumb -1.6226 -4.43193
rfemur -2.50878 -3.95048 16.7554
rtibia 18.3702
rfoot -13.8195 -4.08067
rtoes 5.73794
lfemur -4.55933 -0.434837 -18.2642
ltibia 24.2286
lfoot -14.0047 10.067
ltoes -17.7341
464
root 49.4834 16.8737 -0.637747 695.726 93.5949 699.347
lowerback 9.16826 2.77991 -3.26861
upperback 4.81614 3.60898 -0.794566
thorax -0.278337 1.8387 0.674517
lowerneck -21.7337 -1.33558 2.17285
upperneck 22.5985 -2.72826 0.966137
head 10.8821 -0.860716 -0.421527
rclavicle 6.56983e-014 -2.8625e-014
rhumerus -43.1077 19.3213 -91.8236
rradius 65.5015
rwrist -14.5154
rhand -20.7574 -18.7977
rfingers 7.12502
rthumb 5.60857 -48.7035
lclavicle 6.56983e-014 -2.8625e-014
lhumerus -48.5434 -26.0733 95.3917
lradius 61.3497
lwrist 23.0321
lhand -28.2488 -34.5291
lfingers 7.12502
lthumb -1.62619 -4.55553
rfemur -2.48073 -4.09897 16.949
rtibia 18.3469
rfoot -14.229 -3.97547
rtoes 5.82353
lfemur -4.58185 -0.440906 -18.0808
ltibia 24.2241
lfoot -14.0886 9.971
ltoes -17.9867
465
root 49.4939 16.8746 -0.643747 699.464 93.5816 703.012
lowerback 9.0608 2.76095 -2.94075
upperback 4.81687 3.61251 -0.759421
thorax -0.203043 1.84387 0.533843
lowerneck -21.7052 -1.36272 2.20026
upperneck 22.5401 -2.77468 0.967662
head 10.8544 -0.880815 -0.432151
rclavicle -1.44119e-014 6.55989e-015
rhumerus -43.077 19.2316 -91.8476
rradius 65.4443
rwrist -14.3813
rhand -20.7004 -18.9802
rfingers 7.12502
rthumb 5.66359 -48.8845
lclavicle -1.44119e-014 6.55989e-015
lhumerus -48.5599 -26.1081 95.4764
lradius 61.2435
lwrist 22.9391
lhand -28.2793 -34.519
lfingers 7.12502
lthumb -1.6557 -4.54565
rfemur -2.43634 -4.14514 17.1802
rtibia 18.3118
rfoot -14.6342 -3.77646
rtoes 7.83492
lfemur -4.60814 -0.462359 -17.8762
ltibia 24.1705
lfoot -14.06 9.92083
ltoes -18.2345
466
root 49.5002 16.8728 -0.63852 702.182 93.4743 705.747
lowerback 9.13692 2.79449 -2.78462
upperback 4.78768 3.66435 -0.711116
thorax -0.270905 1.87208 0.486683
lowerneck -21.6197 -1.38248 2.14889
upperneck 22.5211 -2.81173 1.0866
head 10.8343 -0.886943 -0.385402
rclavicle -1.35174e-014 7.95139e-016
rhumerus -43.1448 19.061 -91.8653
rradius 65.5032
rwrist -14.1911
rhand -20.5201 -19.0723
rfingers 7.12502
rthumb 5.83765 -48.9718
lclavicle -1.35174e-014 7.95139e-016
lhumerus -48.6442 -26.0068 95.5124
lradius 61.208
lwrist 22.705
lhand -28.3057 -34.3817
lfingers 7.12502
lthumb -1.68118 -4.40859
rfemur -2.42124 -3.84919 17.5075
rtibia 18.1667
rfoot -14.5544 -4.1553
rtoes 7.17674
lfemur -4.60129 -0.393075 -17.5481
ltibia 24.1066
lfoot -13.92 9.98103
ltoes -18.4093
467
root 49.5076 16.8745 -0.651518 703.809 93.6637 707.245
lowerback 9.08608 2.69688 -2.55776
upperback 4.71094 3.54834 -0.749214
thorax -0.304495 1.81726 0.332746
lowerneck -21.5773 -1.38633 2.08881
upperneck 22.5536 -2.82539 1.20433
head 10.8416 -0.881871 -0.334664
rclavicle -3.54334e-014 1.03368e-014
rhumerus -43.2479 18.962 -91.91
rradius 65.5723
rwrist -14.0664
rhand -20.3497 -19.0179
rfingers 7.12502
rthumb 6.00223 -48.9129
lclavicle -3.54334e-014 1.03368e-014
lhumerus -48.7283 -25.8369 95.5436
lradius 61.1524
lwrist 22.5566
lhand -28.2374 -34.2665
lfingers 7.12502
lthumb -1.61519 -4.29288
rfemur -2.48322 -4.31137 17.4224
rtibia 18.3098
rfoot -14.7899 -3.70541
rtoes 8.84495
lfemur -4.73272 -0.544052 -17.6477
ltibia 24.0458
lfoot -13.8071 9.98375
ltoes -18.798
468
root 49.5199 16.8764 -0.640566 710.039 93.5613 713.471
lowerback 9.1073 2.70686 -2.31737
upperback 4.67093 3.5767 -0.598549
thorax -0.354569 1.83261 0.348716
lowerneck -21.62 -1.42593 2.0057
upperneck 22.6013 -2.86554 1.24436
head 10.869 -0.900798 -0.313182
rclavicle -2.29099e-014 9.34288e-015
rhumerus -43.2816 18.949 -91.9697
rradius 65.5075
rwrist -14.0805
rhand -20.2521 -18.9898
rfingers 7.12502
rthumb 6.09641 -48.8821
lclavicle -2.29099e-014 9.34288e-015
lhumerus -48.7904 -25.7411 95.6334
lradius 61.061
lwrist 22.5986
lhand -28.1897 -34.2574
lfingers 7.12502
lthumb -1.56909 -4.28346
rfemur -2.37968 -3.78398 18.0486
rtibia 18.0682
rfoot -14.9694 -4.01463
rtoes 10.5979
lfemur -4.71676 -0.418791 -17.0234
ltibia 24.1209
lfoot -13.9301 9.86101
ltoes -18.7969
469
root 49.5309 16.8713 -0.627077 708.745 93.5076 712.334
lowerback 9.28672 2.78255 -2.5967
upperback 4.70049 3.65298 -0.555056
thorax -0.442606 1.86789 0.53274
lowerneck -21.6026 -1.4777 1.92074
upperneck 22.5628 -2.91637 1.27308
head 10.8529 -0.928944 -0.296332
rclavicle -2.26615e-014 -1.07344e-014
rhumerus -43.2821 18.9215 -92.0062
rradius 65.4517
rwrist -14.1359
rhand -20.2432 -18.9093
rfingers 7.12502
rthumb 6.105 -48.8014
lclavicle -2.26615e-014 -1.07344e-014
lhumerus -48.8702 -25.7094 95.7441
lradius 61.049
lwrist 22.6875
lhand -28.2342 -34.1761
lfingers 7.12502
lthumb -1.61208 -4.20244
rfemur -2.04511 -3.25798 18.1021
rtibia 17.7583
rfoot -14.9378 -4.43681
rtoes 10.5531
lfemur -4.51402 -0.292655 -16.94
ltibia 24.1922
lfoot -14.0788 9.76055
ltoes -18.5977
